<svg width="27" height="14" viewBox="0 0 27 14" fill="none" xmlns="http://www.w3.org/2000/svg">
<path d="M4.36245 11.5392C4.61086 11.7876 4.94753 11.9282 5.29944 11.9271C5.65026 11.9271 5.98803 11.7876 6.23644 11.5392C6.48484 11.2908 6.6243 10.9542 6.6243 10.6022C6.6243 10.2514 6.48484 9.91366 6.23644 9.66525L3.19876 6.62869L6.23644 3.58989C6.56765 3.25433 6.6962 2.7684 6.57309 2.31407C6.44997 1.85866 6.0948 1.50348 5.63936 1.38034C5.18394 1.25723 4.69802 1.38579 4.36354 1.71591L0.387861 5.69159C0.139453 5.93999 0 6.27667 0 6.62858C0 6.9794 0.139458 7.31717 0.387861 7.56557L4.36245 11.5392Z" fill="#C3F86A"/>
<path d="M19.867 10.6045C19.8659 10.9575 20.0054 11.2964 20.2549 11.5459C20.5044 11.7954 20.8432 11.9348 21.1962 11.9337C21.5492 11.9326 21.887 11.791 22.1343 11.5393L26.1088 7.56474C26.3573 7.31633 26.4967 6.97966 26.4967 6.62884C26.4967 6.27801 26.3572 5.94025 26.1088 5.69184L22.1343 1.71728C21.7987 1.38607 21.3128 1.2586 20.8585 1.38172C20.403 1.50483 20.0479 1.86 19.9247 2.31545C19.8016 2.77089 19.9302 3.25679 20.2614 3.59127L23.2991 6.62895L20.2603 9.66663C20.0097 9.91395 19.8681 10.2526 19.867 10.6045Z" fill="#C3F86A"/>
<path d="M10.6794 13.2476C11.1511 13.2193 11.5728 12.9425 11.7841 12.5198L17.0835 1.92095C17.2415 1.60717 17.2688 1.24218 17.1576 0.907705C17.0465 0.573228 16.8079 0.297575 16.493 0.139596C16.1782 -0.0172944 15.8132 -0.0434428 15.4798 0.0687765C15.1464 0.179908 14.8707 0.420686 14.7138 0.735555L9.41443 11.3355C9.20415 11.7593 9.23466 12.2616 9.49615 12.656C9.75545 13.0504 10.2065 13.2759 10.6794 13.2476Z" fill="#C3F86A"/>
</svg>
