<svg width="20" height="17" viewBox="0 0 20 17" fill="none" xmlns="http://www.w3.org/2000/svg">
<path d="M3.46875 16.6406C1.83594 16.6406 0.976562 15.7969 0.976562 14.1797V6.08594C0.976562 4.75781 1.55469 4.00781 2.77344 3.63281L12.6484 0.664062C14.6172 0.0625 15.9531 0.796875 15.9531 2.71875V3.625H16.0781C17.7188 3.625 18.5703 4.47656 18.5703 6.08594V7.52344C19.4766 7.63281 20.0078 8.3125 20.0078 9.21094V11.0391C20.0078 11.9375 19.4766 12.6172 18.5703 12.7266V14.1797C18.5703 15.7891 17.7188 16.6406 16.0781 16.6406H3.46875ZM7.77344 3.625H14.4609V2.58594C14.4609 1.92969 14.0625 1.66406 13.3672 1.86719L7.76562 3.42969C7.59375 3.47656 7.61719 3.625 7.77344 3.625ZM15.3672 12.7344C13.6797 12.7344 12.5547 11.8516 12.5547 10.125C12.5547 8.39844 13.6797 7.51562 15.3672 7.51562H17.0312V6.21875C17.0312 5.50781 16.6562 5.15625 15.9922 5.15625H3.55469C2.88281 5.15625 2.51562 5.50781 2.51562 6.21875V14.0469C2.51562 14.7578 2.88281 15.1016 3.55469 15.1016H15.9922C16.6562 15.1016 17.0312 14.7578 17.0312 14.0469V12.7344H15.3672ZM15.4219 11.5312H18.0078C18.5391 11.5312 18.8047 11.25 18.8047 10.7422V9.50781C18.8047 9 18.5391 8.71875 18.0078 8.71875H15.4219C14.3672 8.71875 13.8125 9.23438 13.8125 10.125C13.8125 11.0156 14.3672 11.5312 15.4219 11.5312ZM15.4141 10.9453C14.9609 10.9453 14.5938 10.5781 14.5938 10.1172C14.5938 9.66406 14.9609 9.29688 15.4141 9.29688C15.8672 9.29688 16.2344 9.66406 16.2344 10.1172C16.2344 10.5781 15.8672 10.9453 15.4141 10.9453Z" fill="black"/>
</svg>
