<svg width="12" height="15" viewBox="0 0 12 15" fill="none" xmlns="http://www.w3.org/2000/svg">
<path d="M9.95208 12.025V8.57909C9.95208 7.76828 9.82885 7.07671 9.17164 6.40302L5.83863 3.02266C5.18142 2.35493 4.51834 2.16415 3.69682 2.16415H2.84597V1.82432C2.84597 0.631956 3.47384 0 4.66504 0H7.79267V3.52345C7.79267 4.14348 8.13888 4.49523 8.75501 4.49523H12V10.153C12 11.3931 11.3839 12.025 10.1809 12.025H9.95208ZM8.8665 3.75C8.62592 3.75 8.5379 3.64865 8.5379 3.40421L8.53203 0.244436C8.71394 0.268283 8.88411 0.399444 9.08362 0.61407L11.5658 3.18362C11.7711 3.39229 11.9002 3.55922 11.9296 3.75H8.8665ZM1.81907 15C0.604401 15 0 14.374 0 13.128V4.84698C0 3.60095 0.610269 2.97496 1.81907 2.97496H3.94914V7.29134C3.94914 8.05445 4.30122 8.41812 5.05819 8.41812H9.15403V13.128C9.15403 14.368 8.54963 15 7.33496 15H1.81907ZM5.05232 7.60135C4.85281 7.60135 4.74719 7.5 4.74719 7.2973V3.12401C4.97604 3.18959 5.19902 3.36844 5.45721 3.63672L8.59071 6.87997C8.85477 7.15421 8.98973 7.36884 9.04841 7.60135H5.05232Z" fill="white"/>
</svg>
