<svg width="52" height="52" viewBox="0 0 52 52" fill="none" xmlns="http://www.w3.org/2000/svg">
<path d="M33.7798 0H1.07716C0.791481 0 0.517501 0.113486 0.315493 0.315493C0.113486 0.517501 0 0.791481 0 1.07716V33.7852C0 34.0709 0.113486 34.3449 0.315493 34.5469C0.517501 34.7489 0.791481 34.8624 1.07716 34.8624H13.7823C14.068 34.8624 14.342 34.7489 14.544 34.5469C14.746 34.3449 14.8595 34.0709 14.8595 33.7852C14.8595 33.4995 14.746 33.2255 14.544 33.0235C14.342 32.8215 14.068 32.708 13.7823 32.708H2.1651V2.18664H32.6811V13.8038C32.6811 14.0895 32.7946 14.3635 32.9966 14.5655C33.1986 14.7675 33.4726 14.881 33.7583 14.881C34.0439 14.881 34.3179 14.7675 34.5199 14.5655C34.7219 14.3635 34.8354 14.0895 34.8354 13.8038V1.08255C34.8354 0.796867 34.7219 0.522886 34.5199 0.320879C34.3179 0.118872 34.0439 0.00538581 33.7583 0.00538581" fill="#313131"/>
<path d="M50.9445 47.8906C50.8089 47.8906 50.6747 47.9174 50.5496 47.9694C50.4244 48.0215 50.3108 48.0977 50.2152 48.1938C50.1196 48.2899 50.0439 48.404 49.9926 48.5294C49.9412 48.6548 49.9151 48.7892 49.9158 48.9247V49.948H48.8925C48.6332 49.9668 48.3907 50.0831 48.2136 50.2734C48.0366 50.4637 47.9382 50.7141 47.9382 50.974C47.9382 51.2339 48.0366 51.4843 48.2136 51.6746C48.3907 51.8649 48.6332 51.9812 48.8925 52H50.9445C51.2154 51.9986 51.4749 51.8903 51.6665 51.6987C51.8581 51.5071 51.9664 51.2477 51.9678 50.9767V48.9247C51.9664 48.6537 51.8581 48.3943 51.6665 48.2027C51.4749 48.0111 51.2154 47.9028 50.9445 47.9014" fill="#313131"/>
<path d="M41.3577 49.9372H37.9539C37.6946 49.956 37.4521 50.0723 37.275 50.2626C37.098 50.4529 36.9996 50.7033 36.9996 50.9632C36.9996 51.2232 37.098 51.4735 37.275 51.6638C37.4521 51.8541 37.6946 51.9704 37.9539 51.9892H41.3577C41.4987 51.9994 41.6403 51.9805 41.7736 51.9335C41.907 51.8866 42.0292 51.8127 42.1327 51.7164C42.2362 51.6202 42.3188 51.5036 42.3752 51.374C42.4317 51.2444 42.4608 51.1046 42.4608 50.9632C42.4608 50.8218 42.4317 50.682 42.3752 50.5524C42.3188 50.4228 42.2362 50.3062 42.1327 50.21C42.0292 50.1137 41.907 50.0398 41.7736 49.9929C41.6403 49.9459 41.4987 49.927 41.3577 49.9372Z" fill="#313131"/>
<path d="M30.419 49.9372H27.0152C26.8742 49.927 26.7326 49.9459 26.5993 49.9929C26.4659 50.0398 26.3437 50.1137 26.2402 50.21C26.1367 50.3062 26.0541 50.4228 25.9977 50.5524C25.9412 50.682 25.9121 50.8218 25.9121 50.9632C25.9121 51.1046 25.9412 51.2444 25.9977 51.374C26.0541 51.5036 26.1367 51.6202 26.2402 51.7164C26.3437 51.8127 26.4659 51.8866 26.5993 51.9335C26.7326 51.9805 26.8742 51.9994 27.0152 51.9892H30.419C30.6783 51.9704 30.9208 51.8541 31.0979 51.6638C31.2749 51.4735 31.3733 51.2232 31.3733 50.9632C31.3733 50.7033 31.2749 50.4529 31.0979 50.2626C30.9208 50.0723 30.6783 49.956 30.419 49.9372Z" fill="#313131"/>
<path d="M20.1592 49.9372H19.1305V48.9247C19.1305 48.6533 19.0227 48.393 18.8308 48.2011C18.6389 48.0092 18.3786 47.9014 18.1072 47.9014C17.8358 47.9014 17.5755 48.0092 17.3836 48.2011C17.1917 48.393 17.0839 48.6533 17.0839 48.9247V50.9767C17.0853 51.2477 17.1936 51.5071 17.3852 51.6987C17.5768 51.8903 17.8363 51.9986 18.1072 52H20.1592C20.4185 51.9812 20.661 51.8649 20.8381 51.6746C21.0151 51.4843 21.1135 51.234 21.1135 50.974C21.1135 50.7141 21.0151 50.4637 20.8381 50.2734C20.661 50.0831 20.4185 49.9668 20.1592 49.948" fill="#313131"/>
<path d="M18.1072 31.4639C18.3782 31.4625 18.6376 31.3542 18.8292 31.1626C19.0208 30.971 19.1291 30.7116 19.1305 30.4406V27.0368C19.1305 26.7654 19.0227 26.5051 18.8308 26.3132C18.6389 26.1213 18.3786 26.0135 18.1072 26.0135C17.8358 26.0135 17.5755 26.1213 17.3836 26.3132C17.1917 26.5051 17.0839 26.7654 17.0839 27.0368V30.4406C17.0832 30.5752 17.1092 30.7086 17.1604 30.833C17.2115 30.9575 17.2869 31.0706 17.3821 31.1658C17.4772 31.2609 17.5903 31.3363 17.7148 31.3875C17.8393 31.4386 17.9726 31.4646 18.1072 31.4639Z" fill="#313131"/>
<path d="M17.0839 41.3846C17.0839 41.6559 17.1917 41.9162 17.3836 42.1081C17.5755 42.3 17.8358 42.4079 18.1072 42.4079C18.3786 42.4079 18.6389 42.3 18.8308 42.1081C19.0227 41.9162 19.1305 41.6559 19.1305 41.3846V37.9753C19.1305 37.7039 19.0227 37.4437 18.8308 37.2517C18.6389 37.0598 18.3786 36.952 18.1072 36.952C17.8358 36.952 17.5755 37.0598 17.3836 37.2517C17.1917 37.4437 17.0839 37.7039 17.0839 37.9753V41.3846Z" fill="#313131"/>
<path d="M20.1592 17.1053H18.1072C17.8358 17.1053 17.5755 17.2131 17.3836 17.4051C17.1917 17.597 17.0839 17.8572 17.0839 18.1286V20.1752C17.0839 20.4466 17.1917 20.7069 17.3836 20.8988C17.5755 21.0907 17.8358 21.1985 18.1072 21.1985C18.3786 21.1985 18.6389 21.0907 18.8308 20.8988C19.0227 20.7069 19.1305 20.4466 19.1305 20.1752V19.1519H20.1592C20.4302 19.1505 20.6896 19.0423 20.8812 18.8507C21.0728 18.6591 21.1811 18.3996 21.1825 18.1286C21.1832 17.9941 21.1572 17.8607 21.1061 17.7362C21.0549 17.6117 20.9795 17.4986 20.8844 17.4035C20.7892 17.3083 20.6761 17.2329 20.5517 17.1818C20.4272 17.1306 20.2938 17.1046 20.1592 17.1053Z" fill="#313131"/>
<path d="M30.4189 17.1053H27.0151C26.7437 17.1053 26.4834 17.2131 26.2915 17.4051C26.0996 17.597 25.9918 17.8572 25.9918 18.1286C25.9918 18.4 26.0996 18.6603 26.2915 18.8522C26.4834 19.0441 26.7437 19.1519 27.0151 19.1519H30.4189C30.6899 19.1505 30.9494 19.0423 31.141 18.8507C31.3326 18.6591 31.4408 18.3996 31.4422 18.1286C31.443 17.9941 31.417 17.8607 31.3658 17.7362C31.3146 17.6117 31.2393 17.4986 31.1441 17.4035C31.0489 17.3083 30.9359 17.2329 30.8114 17.1818C30.6869 17.1306 30.5535 17.1046 30.4189 17.1053Z" fill="#313131"/>
<path d="M41.3575 17.1053H37.9537C37.6823 17.1053 37.422 17.2132 37.2301 17.4051C37.0382 17.597 36.9304 17.8573 36.9304 18.1287C36.9304 18.4 37.0382 18.6603 37.2301 18.8522C37.422 19.0441 37.6823 19.152 37.9537 19.152H41.3575C41.6289 19.152 41.8892 19.0441 42.0811 18.8522C42.273 18.6603 42.3808 18.4 42.3808 18.1287C42.3808 17.8573 42.273 17.597 42.0811 17.4051C41.8892 17.2132 41.6289 17.1053 41.3575 17.1053Z" fill="#313131"/>
<path d="M50.9443 17.1053H48.8923C48.6209 17.1053 48.3606 17.2132 48.1687 17.4051C47.9768 17.597 47.869 17.8573 47.869 18.1287C47.869 18.4 47.9768 18.6603 48.1687 18.8522C48.3606 19.0441 48.6209 19.152 48.8923 19.152H49.9156V20.1753C49.9054 20.3162 49.9244 20.4578 49.9713 20.5912C50.0182 20.7245 50.0921 20.8467 50.1884 20.9502C50.2847 21.0538 50.4012 21.1363 50.5308 21.1928C50.6604 21.2492 50.8003 21.2783 50.9416 21.2783C51.083 21.2783 51.2228 21.2492 51.3524 21.1928C51.482 21.1363 51.5986 21.0538 51.6949 20.9502C51.7911 20.8467 51.865 20.7245 51.912 20.5912C51.9589 20.4578 51.9778 20.3162 51.9676 20.1753V18.1287C51.9662 17.8577 51.8579 17.5982 51.6663 17.4066C51.4747 17.215 51.2153 17.1068 50.9443 17.1053Z" fill="#313131"/>
<path d="M50.9443 36.9359C50.8094 36.9352 50.6758 36.9611 50.551 37.0122C50.4262 37.0633 50.3128 37.1386 50.2172 37.2337C50.1216 37.3288 50.0458 37.4418 49.994 37.5663C49.9422 37.6908 49.9156 37.8243 49.9156 37.9592V41.3845C49.9054 41.5255 49.9243 41.6671 49.9712 41.8005C50.0182 41.9338 50.0921 42.056 50.1884 42.1595C50.2846 42.263 50.4012 42.3456 50.5308 42.402C50.6604 42.4585 50.8002 42.4876 50.9416 42.4876C51.0829 42.4876 51.2228 42.4585 51.3524 42.402C51.482 42.3456 51.5985 42.263 51.6948 42.1595C51.7911 42.056 51.865 41.9338 51.9119 41.8005C51.9589 41.6671 51.9778 41.5255 51.9676 41.3845V37.9753C51.9676 37.7024 51.8603 37.4405 51.6689 37.246C51.4774 37.0515 51.2171 36.9401 50.9443 36.9359Z" fill="#313131"/>
<path d="M50.9445 25.9919C50.6716 25.9919 50.41 26.1003 50.2171 26.2932C50.0242 26.4862 49.9158 26.7478 49.9158 27.0206V30.4406C49.9346 30.6999 50.0508 30.9424 50.2412 31.1195C50.4315 31.2965 50.6818 31.3949 50.9418 31.3949C51.2017 31.3949 51.452 31.2965 51.6424 31.1195C51.8327 30.9424 51.949 30.6999 51.9678 30.4406V27.0368C51.9692 26.763 51.8626 26.4996 51.671 26.304C51.4794 26.1083 51.2183 25.9962 50.9445 25.9919Z" fill="#313131"/>
<path d="M43.4365 33.7421C43.4324 33.8853 43.3842 34.0238 43.2984 34.1385C43.2126 34.2532 43.0934 34.3386 42.9571 34.383L37.3936 36.3488C37.1447 36.4359 36.9186 36.578 36.7321 36.7645C36.5456 36.951 36.4036 37.1771 36.3164 37.426L34.3668 43.0003C34.3212 43.14 34.2326 43.2616 34.1135 43.3477C33.9945 43.4339 33.8512 43.48 33.7043 43.4796C33.5556 43.4794 33.4106 43.4332 33.2891 43.3474C33.1676 43.2616 33.0756 43.1404 33.0257 43.0003L27.3006 28.2701C27.2464 28.1401 27.2333 27.9965 27.2632 27.8588C27.293 27.7211 27.3643 27.5959 27.4675 27.4999C27.5322 27.434 27.6093 27.3814 27.6943 27.3454C27.7793 27.3094 27.8707 27.2905 27.963 27.2899C28.0545 27.2906 28.1452 27.3052 28.2323 27.333L42.9841 33.0635C43.126 33.1074 43.2484 33.1988 43.3308 33.3224C43.4132 33.446 43.4505 33.5942 43.4365 33.7421Z" fill="#313131"/>
</svg>
