<svg width="107" height="35" viewBox="0 0 107 35" fill="none" xmlns="http://www.w3.org/2000/svg">
<rect x="20" y="19" width="87" height="16" rx="5" fill="#2F2F2F"/>
<path d="M39.4973 31H38.574L41.2445 23.7273H42.1536L44.824 31H43.9007L41.7275 24.8778H41.6706L39.4973 31ZM39.8382 28.1591H43.5598V28.9403H39.8382V28.1591ZM46.8375 23.7273V31H45.9569V23.7273H46.8375ZM51.7141 31H50.7908L53.4613 23.7273H54.3704L57.0408 31H56.1175L53.9442 24.8778H53.8874L51.7141 31ZM52.055 28.1591H55.7766V28.9403H52.055V28.1591ZM62.8034 26C62.7253 25.7609 62.6223 25.5466 62.4945 25.3572C62.369 25.1655 62.2187 25.0021 62.0435 24.8672C61.8707 24.7322 61.6742 24.6293 61.454 24.5582C61.2338 24.4872 60.9924 24.4517 60.7296 24.4517C60.2987 24.4517 59.9069 24.563 59.5542 24.7855C59.2014 25.008 58.9209 25.3359 58.7125 25.7692C58.5042 26.2024 58.4 26.7339 58.4 27.3636C58.4 27.9934 58.5054 28.5249 58.7161 28.9581C58.9268 29.3913 59.2121 29.7192 59.5719 29.9418C59.9318 30.1643 60.3366 30.2756 60.7864 30.2756C61.2031 30.2756 61.57 30.1868 61.8873 30.0092C62.2069 29.8293 62.4554 29.576 62.633 29.2493C62.8129 28.9202 62.9029 28.5331 62.9029 28.0881L63.1728 28.1449H60.9853V27.3636H63.7551V28.1449C63.7551 28.7438 63.6273 29.2647 63.3716 29.7074C63.1183 30.1501 62.7679 30.4934 62.3205 30.7372C61.8754 30.9787 61.3641 31.0994 60.7864 31.0994C60.1425 31.0994 59.5766 30.9479 59.089 30.6449C58.6036 30.3419 58.2248 29.911 57.9526 29.3523C57.6827 28.7936 57.5478 28.1307 57.5478 27.3636C57.5478 26.7884 57.6247 26.2711 57.7786 25.8118C57.9348 25.3501 58.155 24.9571 58.4391 24.6328C58.7232 24.3085 59.0594 24.0599 59.4476 23.8871C59.8359 23.7143 60.2632 23.6278 60.7296 23.6278C61.1131 23.6278 61.4706 23.6858 61.802 23.8018C62.1358 23.9155 62.4329 24.0777 62.6934 24.2884C62.9561 24.4967 63.1751 24.7464 63.3503 25.0376C63.5255 25.3265 63.6462 25.6473 63.7125 26H62.8034ZM65.2635 31V23.7273H69.6527V24.5085H66.1442V26.9659H69.4254V27.7472H66.1442V30.2188H69.7095V31H65.2635ZM77.0071 23.7273V31H76.1548L72.1918 25.2898H72.1207V31H71.2401V23.7273H72.0923L76.0696 29.4517H76.1406V23.7273H77.0071ZM78.3716 24.5085V23.7273H83.8262V24.5085H81.5392V31H80.6586V24.5085H78.3716ZM89.1626 25.5455C89.12 25.1856 88.9472 24.9062 88.6442 24.7074C88.3411 24.5085 87.9695 24.4091 87.5291 24.4091C87.2071 24.4091 86.9254 24.4612 86.6839 24.5653C86.4448 24.6695 86.2578 24.8127 86.1229 24.995C85.9903 25.1773 85.924 25.3845 85.924 25.6165C85.924 25.8106 85.9702 25.9775 86.0625 26.1172C86.1572 26.2545 86.2779 26.3693 86.4247 26.4616C86.5715 26.5516 86.7254 26.6262 86.8864 26.6854C87.0473 26.7422 87.1953 26.7884 87.3303 26.8239L88.0689 27.0227C88.2583 27.0724 88.469 27.1411 88.701 27.2287C88.9354 27.3163 89.1591 27.4358 89.3722 27.5874C89.5876 27.7365 89.7652 27.9283 89.9048 28.1626C90.0445 28.397 90.1143 28.6847 90.1143 29.0256C90.1143 29.4186 90.0114 29.7737 89.8054 30.0909C89.6018 30.4081 89.3035 30.6603 88.9105 30.8473C88.5199 31.0343 88.0452 31.1278 87.4865 31.1278C86.9657 31.1278 86.5147 31.0438 86.1335 30.8757C85.7547 30.7076 85.4564 30.4732 85.2386 30.1726C85.0232 29.8719 84.9013 29.5227 84.8729 29.125H85.782C85.8056 29.3996 85.898 29.6269 86.0589 29.8068C86.2223 29.9844 86.4283 30.117 86.6768 30.2045C86.9278 30.2898 87.1977 30.3324 87.4865 30.3324C87.8227 30.3324 88.1245 30.2779 88.392 30.169C88.6596 30.0578 88.8714 29.9039 89.0277 29.7074C89.1839 29.5085 89.2621 29.2765 89.2621 29.0114C89.2621 28.7699 89.1946 28.5734 89.0597 28.4219C88.9247 28.2704 88.7472 28.1473 88.527 28.0526C88.3068 27.9579 88.0689 27.875 87.8132 27.804L86.9183 27.5483C86.3501 27.3849 85.9003 27.1518 85.5689 26.8487C85.2375 26.5457 85.0717 26.1491 85.0717 25.6591C85.0717 25.2519 85.1818 24.8968 85.402 24.5938C85.6245 24.2884 85.9228 24.0516 86.2969 23.8835C86.6733 23.7131 87.0935 23.6278 87.5575 23.6278C88.0263 23.6278 88.4429 23.7119 88.8075 23.88C89.1721 24.0457 89.4609 24.273 89.674 24.5618C89.8894 24.8506 90.0031 25.1785 90.0149 25.5455H89.1626Z" fill="white"/>
<path fill-rule="evenodd" clip-rule="evenodd" d="M1.66343 1.68935C3.04189 0.301576 5.19166 0 7.87238 0C10.5557 0 12.7145 0.302775 14.1078 1.68218C15.5055 3.06578 15.8121 5.21277 15.8121 7.8722C15.8121 10.5291 15.5066 12.6727 14.1021 14.0445C12.9202 15.1989 11.1912 15.5784 9.06551 15.66L9.02481 18.9163C11.1759 19.0068 12.92 19.4003 14.1078 20.5762C15.5055 21.9598 15.8121 24.1068 15.8121 26.7662C15.8121 29.4231 15.5066 31.5667 14.1021 32.9386C12.7052 34.303 10.5437 34.585 7.86644 34.5718C5.19891 34.5586 3.05067 34.2746 1.67205 32.9144C0.285839 31.5467 0 29.4131 0 26.7662C0 24.1167 0.287155 21.969 1.66343 20.5834C2.81861 19.4204 4.51546 19.0202 6.61254 18.9211L6.65344 15.6486C4.54552 15.5494 2.83497 15.1677 1.67205 14.0204C0.285839 12.6527 0 10.5191 0 7.8722C0 5.22264 0.287155 3.07492 1.66343 1.68935ZM9.09572 13.2433L9.112 11.9411C9.12032 11.2751 8.58716 10.7285 7.92116 10.7201C7.25515 10.7118 6.70849 11.245 6.70016 11.911L6.68363 13.2337C4.79339 13.1338 3.87637 12.8068 3.3661 12.3034C2.76587 11.7112 2.41202 10.5583 2.41202 7.8722C2.41202 5.18882 2.76456 4.00344 3.37472 3.38915C3.9827 2.77707 5.16612 2.41202 7.87238 2.41202C10.576 2.41202 11.7842 2.77587 12.4109 3.39632C13.0334 4.01258 13.4001 5.19868 13.4001 7.8722C13.4001 10.5483 13.0323 11.7177 12.4167 12.319C11.8958 12.8278 10.9683 13.1567 9.09572 13.2433ZM6.58231 21.3392C4.7682 21.4419 3.87593 21.7786 3.37472 22.2832C2.76456 22.8975 2.41202 24.0829 2.41202 26.7662C2.41202 29.4523 2.76587 30.6052 3.3661 31.1974C3.97392 31.7971 5.15886 32.1464 7.87832 32.1598C10.588 32.1731 11.7935 31.8218 12.4167 31.2131C13.0323 30.6118 13.4001 29.4423 13.4001 26.7662C13.4001 24.0927 13.0334 22.9066 12.4109 22.2904C11.8785 21.7633 10.9265 21.4214 8.99463 21.3304L8.978 22.6612C8.96967 23.3272 8.42302 23.8604 7.75701 23.8521C7.091 23.8438 6.55784 23.2971 6.56616 22.6311L6.58231 21.3392ZM55.13 1.68935C56.5085 0.301583 58.6582 6.61852e-06 61.339 6.61852e-06C64.0223 6.61852e-06 66.181 0.302781 67.5744 1.68219C68.972 3.06579 69.2787 5.21278 69.2787 7.87221C69.2787 10.5291 68.9732 12.6727 67.5686 14.0445C66.1717 15.4089 64.0103 15.6909 61.333 15.6777C58.6655 15.6646 56.5173 15.3806 55.1386 14.0204C53.7524 12.6527 53.4666 10.5191 53.4666 7.87221C53.4666 5.22264 53.7537 3.07493 55.13 1.68935ZM56.8413 3.38916C56.2311 4.00344 55.8786 5.18882 55.8786 7.87221C55.8786 10.5583 56.2325 11.7112 56.8327 12.3034C57.4405 12.9031 58.6254 13.2523 61.3449 13.2657C64.0546 13.2791 65.26 12.9278 65.8833 12.319C66.4989 11.7177 66.8667 10.5483 66.8667 7.87221C66.8667 5.19869 66.5 4.01258 65.8775 3.39632C65.2507 2.77587 64.0426 2.41203 61.339 2.41203C58.6327 2.41203 57.4493 2.77707 56.8413 3.38916ZM88.709 0.268022C89.375 0.268022 89.915 0.807972 89.915 1.47403V14.2041C89.915 14.8702 89.375 15.4102 88.709 15.4102C88.0429 15.4102 87.5029 14.8702 87.5029 14.2041V1.47403C87.5029 0.807972 88.0429 0.268022 88.709 0.268022ZM82.071 3.34775C82.6255 3.96924 82.9467 5.18492 82.9467 7.87405V14.2041C82.9467 14.8702 83.4867 15.4101 84.1527 15.4101C84.8188 15.4101 85.3588 14.8702 85.3587 14.2041V7.87405C85.3587 5.24273 85.1042 3.1244 83.8709 1.74199C82.5933 0.310016 80.5854 1.34386e-05 78.153 6.30368e-06C75.7302 0 73.7067 0.289993 72.4116 1.71728C71.1562 3.10072 70.8866 5.24068 70.8866 7.94079V14.2041C70.8866 14.8702 71.4266 15.4101 72.0926 15.4101C72.7587 15.4101 73.2986 14.8701 73.2986 14.2041V7.94079C73.2986 5.18573 73.6351 3.95829 74.1978 3.33814C74.7208 2.76183 75.7275 2.41202 78.153 2.41203C80.5689 2.41204 81.5608 2.77582 82.071 3.34775ZM18.4922 0.268022C19.1582 0.268022 19.6982 0.807972 19.6982 1.47403V14.2041C19.6982 14.8702 19.1582 15.4102 18.4922 15.4102C17.8261 15.4102 17.2862 14.8702 17.2862 14.2041V1.47403C17.2862 0.807972 17.8261 0.268022 18.4922 0.268022ZM34.0365 7.87405C34.0365 5.19238 33.6965 3.9943 33.1083 3.37626C32.5397 2.77876 31.4324 2.41204 28.8428 2.41203C26.2443 2.41202 25.1208 2.76421 24.5378 3.36647C23.9405 3.98361 23.5844 5.19359 23.5844 7.94079V14.2041C23.5844 14.8701 23.0445 15.4101 22.3784 15.4101C21.7123 15.4101 21.1724 14.8702 21.1724 14.2041V7.94079C21.1724 5.23282 21.4627 3.0754 22.8047 1.68895C24.1611 0.287604 26.2697 0 28.8428 6.2862e-06C31.4246 1.34277e-05 33.5172 0.307077 34.8556 1.71348C36.1745 3.09934 36.4485 5.23527 36.4485 7.87406V14.2041C36.4485 14.8702 35.9086 15.4101 35.2425 15.4101C34.5765 15.4102 34.0365 14.8702 34.0365 14.2041L34.0365 7.87405ZM40.3345 1.34001C40.3345 0.673947 39.7946 0.134003 39.1285 0.13401C38.4625 0.134017 37.9225 0.673972 37.9225 1.34003L37.9225 2.3451L37.9225 7.67175C37.9225 9.70064 38.2461 11.729 39.5306 13.2429C40.851 14.7991 42.9481 15.5441 45.8633 15.5441H52.1266C52.7927 15.5441 53.3327 15.0042 53.3327 14.3381C53.3327 13.6721 52.7926 13.1321 52.1266 13.1321H45.8633C43.3233 13.1321 42.053 12.4876 41.3698 11.6824C40.6508 10.835 40.3345 9.53014 40.3345 7.67176L40.3345 6.432H47.3026C47.9687 6.432 48.5087 5.89205 48.5087 5.22599C48.5087 4.55993 47.9687 4.01998 47.3026 4.01998H40.3345L40.3346 2.34502L40.3345 1.34001ZM99.4638 2.88095C96.7747 2.88094 95.559 3.20215 94.9375 3.75662C94.3656 4.26687 94.0018 5.25882 94.0018 7.6747C94.0018 10.1002 94.3516 11.1069 94.9279 11.6299C95.5481 12.1926 96.7755 12.529 99.5306 12.529H105.794C106.46 12.529 107 13.069 107 13.735C107 14.4011 106.46 14.9411 105.794 14.9411H99.5306C96.8305 14.9411 94.6905 14.6715 93.3071 13.4161C91.8798 12.1209 91.5898 10.0975 91.5898 7.67469C91.5898 5.24229 91.8998 3.23435 93.3318 1.95679C94.7142 0.723449 96.8325 0.468921 99.4638 0.468924L105.794 0.468922C106.46 0.468917 107 1.00886 107 1.67492C107 2.34099 106.46 2.88094 105.794 2.88094L99.4638 2.88095Z" fill="#C3F86A"/>
</svg>
