<svg width="16" height="16" viewBox="0 0 16 16" fill="none" xmlns="http://www.w3.org/2000/svg">
<path d="M9.62061 15.7393C9.27881 15.7393 9.03223 15.6172 8.88086 15.373C8.72949 15.1289 8.6001 14.8237 8.49268 14.4575L7.32812 10.5903C7.25977 10.3462 7.23535 10.1509 7.25488 10.0044C7.27441 9.85303 7.35498 9.70166 7.49658 9.55029L14.9746 1.48633C15.0186 1.44238 15.0405 1.39355 15.0405 1.33984C15.0405 1.28613 15.021 1.24219 14.9819 1.20801C14.9429 1.17383 14.8965 1.15674 14.8428 1.15674C14.7939 1.15186 14.7476 1.17139 14.7036 1.21533L6.66895 8.72266C6.50781 8.86914 6.35156 8.95215 6.2002 8.97168C6.04883 8.98633 5.85596 8.95703 5.62158 8.88379L1.6665 7.68262C1.31494 7.5752 1.02441 7.44824 0.794922 7.30176C0.56543 7.15039 0.450684 6.90625 0.450684 6.56934C0.450684 6.30566 0.555664 6.07861 0.765625 5.88818C0.975586 5.69775 1.23438 5.54395 1.54199 5.42676L14.1396 0.600098C14.3105 0.536621 14.4692 0.487793 14.6157 0.453613C14.7671 0.414551 14.9038 0.39502 15.0259 0.39502C15.2651 0.39502 15.4531 0.463379 15.5898 0.600098C15.7266 0.736816 15.7949 0.924805 15.7949 1.16406C15.7949 1.29102 15.7754 1.42773 15.7363 1.57422C15.7021 1.7207 15.6533 1.87939 15.5898 2.05029L10.7925 14.582C10.6558 14.9336 10.4922 15.2144 10.3018 15.4243C10.1113 15.6343 9.88428 15.7393 9.62061 15.7393Z" fill="white"/>
</svg>
