<svg width="8" height="16" viewBox="0 0 8 16" fill="none" xmlns="http://www.w3.org/2000/svg">
<path fill-rule="evenodd" clip-rule="evenodd" d="M1.46369 1.1617C2.06807 0.553244 3.01061 0.421021 4.18596 0.421021C5.36245 0.421021 6.30892 0.55377 6.91984 1.15856C7.53262 1.76519 7.66708 2.70652 7.66708 3.87252C7.66708 5.0374 7.5331 5.97725 6.91731 6.57873C6.39914 7.08485 5.64103 7.25126 4.70901 7.287L4.69117 8.71469C5.63434 8.75437 6.39903 8.92689 6.91984 9.44248C7.53262 10.0491 7.66708 10.9904 7.66708 12.1564C7.66708 13.3213 7.5331 14.2612 6.91731 14.8626C6.30485 15.4609 5.35718 15.5845 4.18335 15.5787C3.0138 15.573 2.07192 15.4484 1.46747 14.8521C0.859699 14.2524 0.734375 13.3169 0.734375 12.1564C0.734375 10.9948 0.860276 10.0531 1.46369 9.44562C1.97016 8.93573 2.71411 8.76028 3.63353 8.71681L3.65146 7.28201C2.72729 7.23851 1.97733 7.07119 1.46747 6.56814C0.859699 5.96849 0.734375 5.03302 0.734375 3.87252C0.734375 2.71084 0.860276 1.76919 1.46369 1.1617ZM4.72226 6.22743L4.7294 5.65652C4.73305 5.36451 4.49929 5.12483 4.20728 5.12118C3.91527 5.11753 3.6756 5.35129 3.67195 5.6433L3.6647 6.22322C2.83598 6.17942 2.43393 6.03607 2.21021 5.81534C1.94705 5.55569 1.79191 5.05022 1.79191 3.87252C1.79191 2.69601 1.94647 2.17629 2.21399 1.90697C2.48056 1.6386 2.99942 1.47855 4.18596 1.47855C5.37134 1.47855 5.90105 1.63808 6.17584 1.91011C6.44877 2.1803 6.60955 2.70034 6.60955 3.87252C6.60955 5.04583 6.44828 5.55856 6.17837 5.8222C5.94999 6.04527 5.5433 6.1895 4.72226 6.22743ZM3.62028 9.77701C2.82493 9.82204 2.43374 9.96966 2.21399 10.1909C1.94647 10.4602 1.79191 10.9799 1.79191 12.1564C1.79191 13.3341 1.94705 13.8396 2.21021 14.0993C2.47671 14.3622 2.99623 14.5153 4.18856 14.5212C5.37661 14.527 5.90512 14.373 6.17837 14.1061C6.44828 13.8425 6.60955 13.3298 6.60955 12.1564C6.60955 10.9843 6.44877 10.4642 6.17584 10.194C5.9424 9.96294 5.525 9.81304 4.67794 9.77315L4.67064 10.3567C4.66699 10.6487 4.42732 10.8824 4.13531 10.8788C3.8433 10.8751 3.60955 10.6354 3.6132 10.3434L3.62028 9.77701Z" fill="black"/>
</svg>
